<?xml version="1.0" encoding="UTF-8"?>
<svg width="18px" height="18px" viewBox="0 0 18 18" version="1.1" xmlns="http://www.w3.org/2000/svg" xmlns:xlink="http://www.w3.org/1999/xlink">
    <!-- Generator: Sketch 55.2 (78181) - https://sketchapp.com -->
    <title>QA</title>
    <desc>Created with Sketch.</desc>
    <g id="QA" stroke="none" stroke-width="1" fill="none" fill-rule="evenodd">
        <g id="常见问题" fill-rule="nonzero">
            <rect id="矩形" fill="#000000" opacity="0" x="0" y="0" width="18" height="18"></rect>
            <path d="M16.417379,8.98224604 C16.417379,4.87804069 13.0909124,1.55148409 8.98690488,1.55148409 C4.88289739,1.55148409 1.5563408,4.87804068 1.5563408,8.98224604 C1.5563408,13.0854801 4.88289739,16.4125223 8.98690488,16.4125223 C9.84321431,16.4125223 10.6649871,16.2660656 11.4303862,15.9995043 L15.7096848,16.4125223 L14.3152523,14.1583626 C15.6156446,12.820124 16.417379,10.9949554 16.417379,8.98224604 L16.417379,8.98224604 Z M10.0836033,14.0754209 L8.22843113,14.0754209 L8.22843113,12.3667773 L10.0836033,12.3667773 L10.0836033,14.0754209 L10.0836033,14.0754209 Z M10.8158868,9.5352451 C10.1643865,9.95860607 9.85546399,10.4467951 9.88829174,10.9998121 L9.88829174,11.3416524 L8.42365276,11.3416524 L8.42365276,10.9510292 C8.39089696,9.9746512 8.84627622,9.14472988 9.79065394,8.46122929 C10.7014304,7.84333023 11.1087643,7.1919019 11.0111085,6.50840131 C10.9135606,5.72735287 10.4252817,5.30474739 9.54655944,5.23916385 C8.37486984,5.20709159 7.69138724,5.7929184 7.49605767,6.99659031 L5.93387084,6.55729216 C6.35645834,4.63730991 7.60975859,3.72574195 9.69298017,3.82332579 C11.5153246,3.92096359 12.5077298,4.83253154 12.6709511,6.55729216 C12.7030413,7.63128998 12.0852142,8.62445062 10.8158868,9.5352451 L10.8158868,9.5352451 Z" id="形状" fill="#C8C9CC"></path>
        </g>
    </g>
</svg>