<?xml version="1.0" encoding="UTF-8"?>
<svg width="102px" height="80px" viewBox="0 0 102 80" version="1.1" xmlns="http://www.w3.org/2000/svg" xmlns:xlink="http://www.w3.org/1999/xlink">
    <!-- Generator: Sketch 55.2 (78181) - https://sketchapp.com -->
    <title>大徽章_行_灰</title>
    <desc>Created with Sketch.</desc>
    <defs>
        <path d="M56.8,53 L54.4666667,53 L50.7333333,53 L48.4,53 C47.6270833,53 47,53.533428 47,54.1909091 L47,62.9242427 C47,63.5817238 47.6270833,64.1151519 48.4,64.1151519 L56.8,64.1151519 C57.5729167,64.1151519 58.2,63.5817238 58.2,62.9242427 L58.2,54.1909091 C58.2,53.533428 57.5729167,53 56.8,53 Z M48.9133333,56.2650758 L49.28375,55.8975758 C49.345,55.8363258 49.4441667,55.8363258 49.5054167,55.8975758 L50.10625,56.5042424 L51.4945833,55.1275758 C51.5558333,55.0663258 51.655,55.0663258 51.71625,55.1275758 L52.08375,55.4979924 C52.145,55.5592424 52.145,55.6584091 52.08375,55.7196591 L50.21125,57.5746591 C50.15,57.6359091 50.0508333,57.6359091 49.9895833,57.5746591 L48.9133333,56.4867424 C48.8520833,56.4254924 48.8520833,56.3263258 48.9133333,56.2650758 Z M49.8,61.5909091 C49.4120833,61.5909091 49.1,61.2788258 49.1,60.8909091 C49.1,60.5029924 49.4120833,60.1909091 49.8,60.1909091 C50.1879167,60.1909091 50.5,60.5029924 50.5,60.8909091 C50.5,61.2788258 50.1879167,61.5909091 49.8,61.5909091 Z M56.3333333,61.1242424 C56.3333333,61.2525758 56.2283333,61.3575758 56.1,61.3575758 L51.9,61.3575758 C51.7716667,61.3575758 51.6666667,61.2525758 51.6666667,61.1242424 L51.6666667,60.6575758 C51.6666667,60.5292424 51.7716667,60.4242424 51.9,60.4242424 L56.1,60.4242424 C56.2283333,60.4242424 56.3333333,60.5292424 56.3333333,60.6575758 L56.3333333,61.1242424 Z M56.3333333,57.3909091 C56.3333333,57.5192424 56.2079167,57.6242424 56.0533333,57.6242424 L51.4945833,57.6242424 L52.4366667,56.6909091 L56.0533333,56.6909091 C56.2079167,56.6909091 56.3333333,56.7959091 56.3333333,56.9242424 L56.3333333,57.3909091 Z" id="path-1"></path>
        <filter x="-4.5%" y="-4.5%" width="108.9%" height="118.0%" filterUnits="objectBoundingBox" id="filter-2">
            <feOffset dx="0" dy="1" in="SourceAlpha" result="shadowOffsetOuter1"></feOffset>
            <feColorMatrix values="0 0 0 0 0.674509804   0 0 0 0 0.674509804   0 0 0 0 0.674509804  0 0 0 0.600879589 0" type="matrix" in="shadowOffsetOuter1"></feColorMatrix>
        </filter>
    </defs>
    <g id="大徽章_行_灰" stroke="none" stroke-width="1" fill="none" fill-rule="evenodd">
        <g id="编组-15备份-2" transform="translate(0.500000, 0.000000)">
            <polygon id="矩形备份-13" fill="#B9B9B9" points="39.5245739 52.4 100.93065 52.4 95.0539361 61.5438203 100.93065 70.4 39.3233075 70.4"></polygon>
            <polygon id="矩形备份-14" fill="#B9B9B9" points="0 52.4 36.2806848 52.4 40.3993776 70.4 0 70.4 5.75269103 61.3189481"></polygon>
            <path d="M51.1296607,76 C31.2474097,76 15.1296607,59.882251 15.1296607,40 C15.1296607,20.117749 31.2474097,4 51.1296607,4 C71.0119117,4 87.1296607,20.117749 87.1296607,40 C87.1296607,59.882251 71.0119117,76 51.1296607,76 Z" id="路径" fill="#FFFFFF" fill-rule="nonzero"></path>
            <path d="M51.1296607,80 C73.2210507,80 91.1296607,62.09139 91.1296607,40 C91.1296607,17.90861 73.2210507,0 51.1296607,0 C29.0382707,0 11.1296607,17.90861 11.1296607,40 C11.1296607,62.09139 29.0382707,80 51.1296607,80 Z M51.1296607,75 C31.7996945,75 16.1296607,59.3299662 16.1296607,40 C16.1296607,20.6700338 31.7996945,5 51.1296607,5 C70.459627,5 86.1296607,20.6700338 86.1296607,40 C86.1296607,59.3299662 70.459627,75 51.1296607,75 Z" id="蒙版备份" fill="#D1D1D1" fill-rule="nonzero"></path>
            <path d="M51.1296607,68.5 C51.4694188,68.5 51.8084868,68.4940525 52.1467642,68.4821833 C52.4227368,68.4725002 52.638607,68.2409305 52.6289239,67.964958 C52.6192408,67.6889854 52.3876711,67.4731152 52.1116986,67.4827983 C51.7851044,67.4942576 51.4577267,67.5 51.1296607,67.5 C50.8535183,67.5 50.6296607,67.7238576 50.6296607,68 C50.6296607,68.2761424 50.8535183,68.5 51.1296607,68.5 Z M54.1790476,68.3387371 C54.5167487,68.302809 54.8533287,68.2609143 55.1886749,68.2130899 C55.4620512,68.1741031 55.6520615,67.9208827 55.6130747,67.6475063 C55.5740879,67.3741299 55.3208675,67.1841196 55.0474911,67.2231065 C54.7239112,67.2692529 54.39913,67.309679 54.0732546,67.3443489 C53.7986619,67.3735628 53.5997431,67.6198468 53.628957,67.8944395 C53.658171,68.1690322 53.9044549,68.367951 54.1790476,68.3387371 Z M57.2024112,67.8515136 C57.5341075,67.7795217 57.8642103,67.701634 58.1925968,67.6179008 C58.4601776,67.5496721 58.6217843,67.2774447 58.5535556,67.009864 C58.4853269,66.7422832 58.2130995,66.5806765 57.9455188,66.6489052 C57.6287347,66.72968 57.3102919,66.8048165 56.9903077,66.8742664 C56.7204483,66.9328372 56.5491651,67.1990825 56.6077359,67.4689418 C56.6663066,67.7388012 56.9325519,67.9100844 57.2024112,67.8515136 Z M60.1732615,67.0350986 C60.4954757,66.9273606 60.8155869,66.8138701 61.1334639,66.6946924 C61.392031,66.597751 61.5230546,66.3095543 61.4261132,66.0509872 C61.3291718,65.79242 61.0409752,65.6613964 60.782408,65.7583378 C60.475767,65.873303 60.1669727,65.9827813 59.8561509,66.0867101 C59.5942606,66.1742778 59.4529442,66.4575694 59.5405119,66.7194597 C59.6280796,66.98135 59.9113713,67.1226663 60.1732615,67.0350986 Z M62.9953466,65.9199388 C63.3038791,65.7784712 63.6097994,65.6314973 63.9129722,65.4790975 C64.1596961,65.3550736 64.2591641,65.0545231 64.1351402,64.8077992 C64.0111163,64.5610753 63.7105658,64.4616073 63.4638419,64.5856312 C63.1713491,64.7326624 62.8762096,64.8744569 62.5785536,65.0109373 C62.3275398,65.1260315 62.2173552,65.4228207 62.3324494,65.6738345 C62.4475436,65.9248483 62.7443327,66.035033 62.9953466,65.9199388 Z M65.7184683,64.4879958 C66.0098736,64.3140225 66.2981443,64.1348573 66.5831447,63.9505958 C66.8150415,63.8006675 66.88149,63.4911371 66.7315617,63.2592403 C66.5816334,63.0273435 66.272103,62.960895 66.0402062,63.1108233 C65.7651984,63.2886243 65.4870388,63.4615054 65.2058585,63.6293742 C64.9687567,63.7709275 64.8912993,64.0778881 65.0328525,64.3149899 C65.1744058,64.5520917 65.4813664,64.6295491 65.7184683,64.4879958 Z M68.2771686,62.7662899 C68.547859,62.5620903 68.814908,62.353087 69.0781839,62.1393894 C69.2925872,61.9653612 69.3253177,61.6504752 69.1512894,61.4360719 C68.9772611,61.2216686 68.6623751,61.1889381 68.4479718,61.3629664 C68.1938913,61.5692002 67.9361717,61.770902 67.6749404,61.9679659 C67.4544893,62.1342666 67.4105918,62.4477909 67.5768925,62.668242 C67.7431932,62.8886931 68.0567175,62.9325906 68.2771686,62.7662899 Z M70.6095686,60.8035705 C70.8570435,60.5717486 71.1003924,60.3355493 71.3394912,60.0950937 C71.5342001,59.8992799 71.5333045,59.5826987 71.3374906,59.3879898 C71.1416768,59.1932808 70.8250956,59.1941765 70.6303867,59.3899903 C70.399626,59.6220605 70.1647635,59.8500228 69.9259193,60.0737598 C69.7243877,60.2625443 69.7140541,60.5789581 69.9028386,60.7804897 C70.0916231,60.9820214 70.4080369,60.992355 70.6095686,60.8035705 Z M72.7033154,58.6240076 C72.9250322,58.3674002 73.1421758,58.106878 73.3546331,57.8425709 C73.5276397,57.6273423 73.4934119,57.3126155 73.2781834,57.1396089 C73.0629548,56.9666024 72.748228,57.0008301 72.5752215,57.2160587 C72.3701822,57.4711375 72.1606186,57.7225654 71.9466402,57.9702167 C71.7661008,58.1791668 71.7891323,58.4949104 71.9980824,58.6754498 C72.2070325,58.8559891 72.5227761,58.8329577 72.7033154,58.6240076 Z M74.5843126,56.194899 C74.7773566,55.9158384 74.9654141,55.6333593 75.1483851,55.3475966 C75.2972885,55.1150404 75.2294745,54.8058063 74.9969184,54.6569029 C74.7643622,54.5079995 74.455128,54.5758134 74.3062246,54.8083696 C74.1296653,55.0841186 73.9481952,55.3567027 73.761911,55.6259916 C73.6048116,55.8530915 73.6615581,56.1645467 73.8886581,56.3216461 C74.115758,56.4787456 74.4272131,56.421999 74.5843126,56.194899 Z M76.196636,53.5721195 C76.3584339,53.2739067 76.514896,52.9727957 76.6659376,52.668922 C76.788849,52.4216421 76.6880284,52.1215426 76.4407484,51.9986312 C76.1934685,51.8757197 75.893369,51.9765403 75.7704576,52.2238203 C75.6247338,52.5169953 75.4737782,52.807509 75.3176725,53.0952306 C75.1859832,53.3379497 75.2759907,53.6414676 75.5187098,53.7731568 C75.7614289,53.9048461 76.0649468,53.8148386 76.196636,53.5721195 Z M77.5174592,50.786776 C77.6459143,50.4728563 77.7687554,50.1565643 77.8859134,49.8380323 C77.9812369,49.5788643 77.8484147,49.2914922 77.5892467,49.1961687 C77.3300787,49.1008452 77.0427066,49.2336674 76.9473831,49.4928354 C76.8343654,49.8001109 76.7158644,50.1052277 76.5919467,50.4080589 C76.4873669,50.6636321 76.6097711,50.9555938 76.8653444,51.0601737 C77.1209176,51.1647535 77.4128793,51.0423492 77.5174592,50.786776 Z M78.5292275,47.869282 C78.6227048,47.5432193 78.7103659,47.2153008 78.7921567,46.8856521 C78.8586554,46.6176362 78.6952934,46.3464585 78.4272775,46.2799598 C78.1592616,46.2134611 77.8880839,46.3768231 77.8215852,46.644839 C77.7426852,46.962837 77.6581229,47.2791634 77.5679505,47.5936981 C77.4918501,47.8591474 77.6453477,48.1360282 77.910797,48.2121286 C78.1762463,48.288229 78.4531271,48.1347313 78.5292275,47.869282 Z M79.2184137,44.8508867 C79.2756996,44.51685 79.3270645,44.1814555 79.3724682,43.8448188 C79.4093786,43.5711543 79.2174514,43.3193837 78.943787,43.2824734 C78.6701225,43.245563 78.4183519,43.4374902 78.3814415,43.7111546 C78.3376325,44.0359678 78.2880732,44.3595724 78.2328025,44.6818584 C78.1861266,44.9540274 78.3689249,45.2125023 78.6410939,45.2591781 C78.913263,45.305854 79.1717378,45.1230557 79.2184137,44.8508867 Z M79.5664232,41.9134741 C79.5888309,41.5755481 79.6053016,41.2367055 79.6158067,40.8970505 C79.6243433,40.6210401 79.4075129,40.3903692 79.1315025,40.3818326 C78.8554921,40.373296 78.6248212,40.5901263 78.6162846,40.8661367 C78.6061433,41.1940307 78.5902438,41.5211214 78.5686144,41.8473099 C78.5503437,42.1228472 78.7588994,42.3610256 79.0344367,42.3792964 C79.309974,42.3975671 79.5481524,42.1890113 79.5664232,41.9134741 Z M79.6088191,38.900075 C79.5959153,38.5601356 79.5770302,38.2210386 79.5521935,37.8828895 C79.5319656,37.607489 79.2923115,37.4006307 79.0169109,37.4208586 C78.7415104,37.4410865 78.5346521,37.6807406 78.55488,37.9561411 C78.5788531,38.2825314 78.5970824,38.6098533 78.6095388,38.9380069 C78.6200134,39.2139505 78.8522013,39.4291557 79.1281449,39.4186811 C79.4040885,39.4082065 79.6192937,39.1760186 79.6088191,38.900075 Z M79.3304182,35.8554403 C79.2814398,35.5193062 79.2265048,35.1844605 79.1656548,34.8510199 C79.11608,34.579364 78.855671,34.3993317 78.5840151,34.4489065 C78.3123592,34.4984813 78.1323268,34.7588903 78.1819017,35.0305462 C78.2406093,35.3522473 78.2936114,35.6753119 78.340868,35.9996287 C78.3806845,36.2728854 78.6344806,36.4621261 78.9077373,36.4223096 C79.1809941,36.3824931 79.3702348,36.128697 79.3304182,35.8554403 Z M78.725154,32.8497665 C78.6401717,32.520861 78.5493292,32.193731 78.4526819,31.8685027 C78.374021,31.6038008 78.0956705,31.4529848 77.8309686,31.5316456 C77.5662668,31.6103065 77.4154507,31.888657 77.4941116,32.1533588 C77.5873416,32.4670873 77.6749722,32.7826513 77.7569504,33.0999299 C77.8260311,33.367292 78.0987718,33.5280307 78.3661339,33.45895 C78.6334959,33.3898693 78.7942347,33.1171285 78.725154,32.8497665 Z M77.7894221,29.9035207 C77.6690386,29.5858149 77.5429801,29.2704004 77.4113177,28.9574104 C77.3042435,28.7028721 77.0110987,28.5833289 76.7565604,28.690403 C76.5020222,28.7974772 76.3824789,29.090622 76.489553,29.3451602 C76.616566,29.6470975 76.7381717,29.9513706 76.854302,30.2578517 C76.9521478,30.516078 77.2408012,30.646092 77.4990275,30.5482462 C77.7572538,30.4504004 77.8872679,30.161747 77.7894221,29.9035207 Z M76.5672113,27.1343715 C76.4137142,26.8314706 76.2548107,26.5313736 76.0905869,26.2342165 C75.9570173,25.9925271 75.6528098,25.9048786 75.4111203,26.0384482 C75.1694309,26.1720178 75.0817825,26.4762253 75.215352,26.7179147 C75.3738004,27.0046214 75.5271133,27.2941603 75.675208,27.5864003 C75.8000323,27.8327202 76.1009041,27.9312119 76.3472241,27.8063876 C76.593544,27.6815633 76.6920356,27.3806914 76.5672113,27.1343715 Z M75.0295182,24.4683186 C74.8442512,24.1838058 74.6539181,23.9026172 74.4586201,23.6248875 C74.299779,23.3990023 73.9878967,23.3446525 73.7620115,23.5034936 C73.5361264,23.6623348 73.4817766,23.9742171 73.6406177,24.2001022 C73.8290791,24.4681097 74.012747,24.7394516 74.1915239,25.0139976 C74.342209,25.2454033 74.6519548,25.3108403 74.8833606,25.1601552 C75.1147663,25.0094701 75.1802033,24.6997243 75.0295182,24.4683186 Z M73.2054461,21.9733974 C72.9906882,21.7107083 72.7712712,21.4518466 72.5473096,21.1969416 C72.365045,20.9894947 72.0491214,20.9690804 71.8416745,21.151345 C71.6342276,21.3336096 71.6138133,21.6495332 71.7960779,21.8569802 C72.0122241,22.1029899 72.223983,22.3528168 72.431244,22.6063358 C72.6060251,22.8201258 72.9210242,22.8517488 73.1348142,22.6769677 C73.3486043,22.5021866 73.3802272,22.1871874 73.2054461,21.9733974 Z M71.1923011,19.7579507 C70.9513628,19.5191348 70.7062023,19.28461 70.4569444,19.054497 C70.2540458,18.8671825 69.9377154,18.8798159 69.7504009,19.0827146 C69.5630864,19.2856133 69.5757198,19.6019436 69.7786185,19.7892581 C70.0191829,20.0113455 70.2557935,20.2376913 70.4883294,20.4681787 C70.6844535,20.6625751 71.0010329,20.6611746 71.1954293,20.4650505 C71.3898257,20.2689265 71.3884251,19.9523471 71.1923011,19.7579507 Z M68.9004718,17.7175346 C68.6352309,17.5057253 68.3662462,17.2986508 68.0936501,17.0964201 C67.8718737,16.931891 67.5587112,16.978299 67.394182,17.2000754 C67.2296529,17.4218519 67.276061,17.7350144 67.4978374,17.8995435 C67.7609055,18.0947056 68.0204909,18.2945443 68.2764658,18.4989541 C68.4922488,18.6712686 68.806864,18.6360304 68.9791785,18.4202474 C69.151493,18.2044643 69.1162548,17.8898491 68.9004718,17.7175346 Z M66.3996438,15.9317569 C66.1131707,15.749632 65.8234623,15.5726315 65.5306544,15.4008502 C65.292475,15.2611178 64.9861168,15.3409248 64.8463844,15.5791043 C64.7066519,15.8172837 64.786459,16.1236419 65.0246384,16.2633743 C65.3071686,16.429126 65.5867121,16.5999161 65.8631378,16.7756534 C66.0961733,16.9238054 66.405187,16.8549937 66.553339,16.6219582 C66.7014911,16.3889226 66.6326794,16.079909 66.3996438,15.9317569 Z M63.7152696,14.422482 C63.4108427,14.2724065 63.1037046,14.1277809 62.7939904,13.9886845 C62.5420866,13.8755514 62.2461657,13.9880473 62.1330327,14.2399511 C62.0198996,14.4918549 62.1323955,14.7877757 62.3842993,14.9009088 C62.683092,15.0351002 62.9794031,15.1746276 63.2731025,15.3194147 C63.5207836,15.4415158 63.8205513,15.3397131 63.9426524,15.0920319 C64.0647535,14.8443508 63.9629508,14.5445831 63.7152696,14.422482 Z M60.8790099,13.2112971 C60.5602129,13.0952483 60.2392303,12.9848984 59.9161924,12.8803111 C59.6534761,12.7952537 59.3715498,12.9392746 59.2864924,13.2019909 C59.2014349,13.4647071 59.3454559,13.7466334 59.6081721,13.8316909 C59.9197874,13.93258 60.2294209,14.0390282 60.5369477,14.1509744 C60.7964324,14.2454323 61.0833596,14.1116516 61.1778175,13.8521669 C61.2722753,13.5926822 61.1384947,13.305755 60.8790099,13.2112971 Z M57.918917,12.3137662 C57.5895416,12.2332688 57.2584938,12.1586349 56.9258958,12.0899135 C56.6554657,12.0340372 56.3909421,12.2079675 56.3350658,12.4783976 C56.2791896,12.7488278 56.4531198,13.0133514 56.72355,13.0692276 C57.0444092,13.1355235 57.3637681,13.2075222 57.6815099,13.2851765 C57.9497574,13.3507346 58.2203604,13.1864224 58.2859185,12.9181749 C58.3514767,12.6499274 58.1871645,12.3793244 57.918917,12.3137662 Z M54.8716458,11.7435134 C54.5357005,11.6994474 54.198569,11.6613182 53.8603629,11.6291617 C53.5854603,11.603024 53.3414189,11.8046878 53.3152813,12.0795904 C53.2891436,12.354493 53.4908074,12.5985344 53.76571,12.624672 C54.0920889,12.6557041 54.4174174,12.6924983 54.7415897,12.73502 C55.0153867,12.770934 55.2664571,12.5780918 55.3023711,12.3042948 C55.3382851,12.0304978 55.1454428,11.7794274 54.8716458,11.7435134 Z M51.983805,11.5125589 C51.7009957,11.504232 51.4176477,11.5000408 51.1338196,11.5000003 C51.0454452,11.5000812 51.0454452,11.5000812 50.9612337,11.5004874 C50.685096,11.502086 50.462538,11.7272357 50.464128,12.0033735 C50.4657351,12.2795112 50.6908849,12.5020692 50.9670226,12.5004706 C51.0482686,12.5000786 51.0482686,12.5000786 51.1337457,12.5000003 C51.4077401,12.5000394 51.6813245,12.5040862 51.9543743,12.5121257 C52.230397,12.5202528 52.460746,12.3030804 52.468873,12.0270577 C52.4770001,11.7510349 52.2598278,11.520686 51.983805,11.5125589 Z M48.9275021,11.5838409 C48.5883495,11.6097645 48.2501964,11.6416755 47.9131527,11.6795402 C47.6387366,11.7103691 47.4412702,11.9578191 47.4720991,12.2322352 C47.502928,12.5066513 47.7503779,12.7041177 48.024794,12.6732888 C48.3500522,12.6367481 48.6763943,12.6059517 49.0037161,12.5809324 C49.2790553,12.5598865 49.4852007,12.3196188 49.4641548,12.0442796 C49.4431089,11.7689404 49.2028413,11.562795 48.9275021,11.5838409 Z M45.8949601,11.9797852 C45.5613743,12.0417208 45.2292451,12.1095745 44.8986928,12.1833002 C44.6291728,12.2434133 44.459415,12.5106337 44.5195281,12.7801537 C44.5796412,13.0496737 44.8468616,13.2194315 45.1163816,13.1593184 C45.4352686,13.0881946 45.7556818,13.0227344 46.0775066,12.9629824 C46.3490091,12.9125735 46.5282408,12.6516129 46.477832,12.3801105 C46.4274231,12.1086081 46.1664625,11.9293763 45.8949601,11.9797852 Z M42.907653,12.7040403 C42.582657,12.8018013 42.259616,12.9053544 41.9386586,13.0146388 C41.677254,13.1036457 41.5374981,13.3877104 41.6265051,13.649115 C41.715512,13.9105197 41.9995767,14.0502756 42.2609813,13.9612686 C42.5705894,13.8558487 42.8822067,13.7559575 43.1957098,13.6616536 C43.4601474,13.5821089 43.6100328,13.3032561 43.5304881,13.0388185 C43.4509434,12.7743809 43.1720906,12.6244956 42.907653,12.7040403 Z M40.0447635,13.7361806 C39.7318706,13.8683995 39.4214489,14.0062073 39.1136327,14.1495277 C38.8632953,14.2660858 38.7548457,14.5635134 38.8714038,14.8138508 C38.9879619,15.0641882 39.2853895,15.1726378 39.5357269,15.0560797 C39.8326867,14.9178141 40.1321565,14.7848682 40.4340069,14.6573155 C40.6883713,14.5498289 40.8074392,14.2564907 40.6999526,14.0021263 C40.592466,13.747762 40.2991278,13.628694 40.0447635,13.7361806 Z M37.2838807,15.0834519 C36.9872341,15.2486411 36.6935797,15.4191213 36.4030535,15.5948008 C36.1667541,15.7376897 36.09103,16.0450824 36.2339188,16.2813818 C36.3768077,16.5176812 36.6842004,16.5934054 36.9204998,16.4505165 C37.2008264,16.2810047 37.4841672,16.116512 37.770391,15.9571268 C38.0116497,15.8227807 38.0983194,15.5182929 37.9639733,15.2770342 C37.8296272,15.0357756 37.5251394,14.9491058 37.2838807,15.0834519 Z M34.6758144,16.7266043 C34.3990465,16.9226241 34.1257808,17.1235612 33.8561503,17.3293097 C33.6366218,17.4968266 33.5944581,17.8105887 33.7619749,18.0301171 C33.9294918,18.2496455 34.2432539,18.2918093 34.4627823,18.1242924 C34.7229872,17.9257364 34.9866974,17.7318257 35.2537842,17.5426625 C35.4791325,17.3830605 35.5324303,17.0709967 35.3728284,16.8456485 C35.2132264,16.6203003 34.9011626,16.5670024 34.6758144,16.7266043 Z M32.2502076,18.6497131 C31.9961908,18.8744989 31.7461764,19.1037829 31.5002909,19.3374467 C31.3001174,19.5276707 31.2920516,19.8441504 31.4822756,20.044324 C31.6724996,20.2444975 31.9889793,20.2525633 32.1891528,20.0623393 C32.4264623,19.8368252 32.667756,19.6155388 32.9129115,19.3985946 C33.1197094,19.2155939 33.1390009,18.8995998 32.9560003,18.6928019 C32.7729997,18.4860039 32.4570055,18.4667124 32.2502076,18.6497131 Z M30.1245132,20.7375225 C29.8951061,20.9875526 29.6701553,21.2416367 29.4497776,21.4996468 C29.2704298,21.7096206 29.2952571,22.0252281 29.5052309,22.2045758 C29.7152047,22.3839236 30.0308122,22.3590963 30.2101599,22.1491225 C30.4228478,21.9001153 30.6399504,21.6548959 30.8613548,21.413588 C31.0480451,21.2101149 31.0344399,20.8938249 30.8309668,20.7071345 C30.6274936,20.5204442 30.3112036,20.5340494 30.1245132,20.7375225 Z M28.1730026,23.107791 C27.9716191,23.3810233 27.7751167,23.6578182 27.5835994,23.9380415 C27.4277852,24.1660251 27.48629,24.4771547 27.7142736,24.632969 C27.9422572,24.7887833 28.2533868,24.7302785 28.4092011,24.5022949 C28.5940152,24.2318795 28.7836423,23.9647693 28.9779819,23.7010939 C29.141818,23.478805 29.0944326,23.1657889 28.8721437,23.0019528 C28.6498548,22.8381167 28.3368387,22.8855021 28.1730026,23.107791 Z M26.4833198,25.6797489 C26.3126066,25.9729383 26.1471376,26.2691714 25.987002,26.5683126 C25.8566766,26.8117667 25.9483856,27.1147748 26.1918398,27.2451002 C26.4352939,27.3754255 26.738302,27.2837165 26.8686274,27.0402624 C27.0231324,26.7516394 27.1827856,26.4658181 27.3475011,26.1829295 C27.4864506,25.9442924 27.4056378,25.638198 27.1670007,25.4992485 C26.9283637,25.3602991 26.6222693,25.4411118 26.4833198,25.6797489 Z M25.0793507,28.422889 C24.9414064,28.7328288 24.8090075,29.0452876 24.6822276,29.3601319 C24.5790804,29.6162867 24.7031177,29.9075585 24.9592725,30.0107056 C25.2154273,30.1138527 25.506699,29.9898155 25.6098462,29.7336607 C25.7321494,29.4299338 25.8598745,29.1285051 25.9929507,28.8295032 C26.1052341,28.5772195 25.9917414,28.2816795 25.7394578,28.1693961 C25.4871741,28.0571127 25.1916341,28.1706053 25.0793507,28.422889 Z M23.9798079,31.3071917 C23.8764329,31.6303202 23.7788286,31.9554474 23.6870534,32.2824456 C23.6124344,32.5483152 23.7674737,32.8243357 24.0333433,32.8989546 C24.2992129,32.9735735 24.5752333,32.8185342 24.6498522,32.5526647 C24.7383823,32.2372291 24.8325351,31.9235993 24.9322544,31.6118977 C25.0163966,31.3488869 24.871395,31.0674637 24.6083841,30.9833215 C24.3453733,30.8991793 24.0639502,31.0441809 23.9798079,31.3071917 Z M23.1995301,34.3016447 C23.132105,34.6338738 23.0705812,34.9675962 23.0150026,35.3026933 C22.9698194,35.5751141 23.1540318,35.832583 23.4264526,35.8777662 C23.6988734,35.9229494 23.9563423,35.7387369 24.0015255,35.4663161 C24.0551471,35.1430183 24.1145032,34.8210545 24.1795513,34.5005377 C24.2344741,34.2299124 24.0596126,33.9660034 23.7889872,33.9110806 C23.5183618,33.8561578 23.2544529,34.0310193 23.1995301,34.3016447 Z M22.7584264,37.2734665 C22.7264111,37.6107102 22.7003375,37.9489884 22.6802372,38.2881934 C22.6639026,38.5638522 22.8741263,38.8005597 23.1497852,38.8168944 C23.425444,38.8332291 23.6621515,38.6230053 23.6784862,38.3473465 C23.697887,38.0199438 23.7230522,37.6934522 23.7539505,37.3679738 C23.780048,37.0930674 23.5783485,36.8490555 23.3034421,36.8229581 C23.0285357,36.7968606 22.7845238,36.9985601 22.7584264,37.2734665 Z M22.6307506,40.2518368 C22.6336957,40.5919585 22.6426066,40.9313549 22.6574569,41.2699238 C22.6695574,41.5458009 22.9030094,41.7596341 23.1788865,41.7475336 C23.4547636,41.7354331 23.6685968,41.5019811 23.6564964,41.226104 C23.6421598,40.8992482 23.6335567,40.5715741 23.6307132,40.2431784 C23.6283222,39.9670464 23.4025347,39.7451354 23.1264027,39.7475072 C22.8502707,39.7499173 22.6283597,39.9757048 22.6307506,40.2518368 Z M22.8185344,43.2985194 C22.8574352,43.6359918 22.9023043,43.972305 22.9531037,44.3073452 C22.9944998,44.5803672 23.2493859,44.768137 23.5224079,44.726741 C23.7954298,44.6853449 23.9831997,44.4304587 23.9418036,44.1574368 C23.8927881,43.8341623 23.8494934,43.5096496 23.8119562,43.1840067 C23.7803344,42.9096808 23.5323148,42.7129303 23.2579889,42.7445522 C22.9836631,42.776174 22.7869126,43.0241936 22.8185344,43.2985194 Z M23.3326618,46.318643 C23.4077285,46.6502528 23.4887018,46.9802232 23.5755301,47.3084298 C23.6461549,47.5753882 23.9198201,47.7345479 24.1867784,47.6639231 C24.4537368,47.5932983 24.6128965,47.3196331 24.5422717,47.0526747 C24.458512,46.7360671 24.3803997,46.4177555 24.3079844,46.0978586 C24.2470165,45.8285307 23.9792588,45.6596216 23.7099309,45.7205895 C23.440603,45.7815575 23.2716939,46.0493151 23.3326618,46.318643 Z M24.1761755,49.2840877 C24.2866192,49.6047891 24.4027798,49.923352 24.524591,50.2396455 C24.6238338,50.4973381 24.9131871,50.625787 25.1708797,50.5265442 C25.4285723,50.4273014 25.5570213,50.1379481 25.4577785,49.8802555 C25.3402721,49.5751401 25.2282176,49.2678376 25.1216782,48.9584737 C25.0317624,48.6973803 24.7472132,48.5586134 24.4861199,48.6485293 C24.2250265,48.7384451 24.0862596,49.0229943 24.1761755,49.2840877 Z M25.3167104,52.0962879 C25.4608223,52.4032942 25.6104086,52.7076491 25.7653878,53.0092178 C25.891608,53.2548253 26.193034,53.3516078 26.4386416,53.2253876 C26.6842491,53.0991674 26.7810316,52.7977414 26.6548114,52.5521339 C26.5052896,52.2611847 26.3609729,51.9675514 26.2219395,51.6713641 C26.1046001,51.421392 25.8068352,51.313872 25.5568631,51.4312114 C25.306891,51.5485509 25.1993709,51.8463158 25.3167104,52.0962879 Z M26.7720632,54.8050419 C26.9485344,55.0947667 27.1301644,55.381317 27.3168562,55.6645576 C27.468827,55.895121 27.7789323,55.9588329 28.0094957,55.8068621 C28.2400591,55.6548913 28.303771,55.3447861 28.1518002,55.1142227 C27.9716517,54.8409093 27.7963899,54.5644059 27.6261084,54.2848433 C27.4824595,54.0490052 27.1748246,53.9742711 26.9389865,54.11792 C26.7031484,54.2615688 26.6284143,54.5692038 26.7720632,54.8050419 Z M28.5173359,57.3497321 C28.7240888,57.6188023 28.9356191,57.884184 29.1518156,58.1457459 C29.3277454,58.3585916 29.6429103,58.388518 29.8557561,58.2125882 C30.0686018,58.0366584 30.0985282,57.7214936 29.9225984,57.5086478 C29.7139511,57.2562193 29.5098089,57.0001065 29.310279,56.7404363 C29.1420266,56.5214712 28.8281247,56.4803603 28.6091596,56.6486127 C28.3901944,56.816865 28.3490835,57.1307669 28.5173359,57.3497321 Z M30.4690708,59.6314356 C30.7027665,59.8773058 30.9408121,60.1190151 31.1830853,60.3564398 C31.3803109,60.5497186 31.6968772,60.5465189 31.8901559,60.3492933 C32.0834347,60.1520677 32.080235,59.8355014 31.8830094,59.6422226 C31.649185,59.4130775 31.4194407,59.1797974 31.1938949,58.9425017 C31.003651,58.742347 30.6871705,58.7343127 30.4870158,58.9245566 C30.2868612,59.1148004 30.2788269,59.431281 30.4690708,59.6314356 Z M32.6984814,61.7387782 C32.9571071,61.9582672 33.2196091,62.1731452 33.4858569,62.3832999 C33.7026126,62.5543894 34.0170231,62.5173697 34.1881126,62.3006141 C34.3592021,62.0838585 34.3221824,61.7694479 34.1054268,61.5983584 C33.8484771,61.3955429 33.5951404,61.1881674 33.3455429,60.9763404 C33.1350015,60.7976593 32.8194744,60.8234871 32.6407933,61.0340285 C32.4621122,61.2445699 32.4879401,61.5600971 32.6984814,61.7387782 Z M35.1447577,63.5985402 C35.4255425,63.7890995 35.7097036,63.9746403 35.9971059,64.155064 C36.2309821,64.3018854 36.5395985,64.2313135 36.6864199,63.9974373 C36.8332413,63.7635611 36.7626694,63.4549447 36.5287932,63.3081233 C36.2514658,63.1340243 35.9772622,62.9549852 35.7063131,62.771101 C35.4778221,62.6160318 35.1668851,62.6755519 35.0118158,62.9040429 C34.8567466,63.132534 34.9162667,63.443471 35.1447577,63.5985402 Z M37.7806343,65.1867336 C38.0802899,65.3458764 38.3828009,65.4996571 38.6880319,65.6479922 C38.9363986,65.7686926 39.2355866,65.6651986 39.356287,65.4168319 C39.4769874,65.1684651 39.3734934,64.8692771 39.1251267,64.7485768 C38.8306462,64.6054662 38.5387859,64.4570997 38.2496763,64.3035577 C38.005794,64.1740354 37.7030897,64.2667424 37.5735674,64.5106247 C37.444045,64.754507 37.536752,65.0572112 37.7806343,65.1867336 Z M40.577052,66.4824021 C40.8921659,66.6080762 41.2096102,66.7281146 41.529253,66.8424491 C41.7892624,66.9354531 42.0754363,66.8000685 42.1684403,66.5400592 C42.2614443,66.2800498 42.1260597,65.9938759 41.8660503,65.9008719 C41.5577053,65.7905785 41.2514791,65.6747822 40.9474986,65.5535483 C40.6910027,65.4512523 40.4001444,65.576256 40.2978484,65.8327519 C40.1955524,66.0892478 40.3205561,66.3801061 40.577052,66.4824021 Z M43.5062858,67.4688642 C43.8330746,67.5593633 44.161676,67.6440369 44.4919655,67.7228324 C44.7605701,67.786912 45.0302639,67.6211117 45.0943435,67.3525071 C45.1584231,67.0839025 44.9926228,66.8142087 44.7240182,66.7501292 C44.4053994,66.6741179 44.0884119,66.5924369 43.773175,66.505137 C43.507049,66.4314376 43.2315662,66.5874301 43.1578668,66.853556 C43.0841674,67.119682 43.2401599,67.3951648 43.5062858,67.4688642 Z M46.5319492,68.1309952 C46.8664688,68.1852581 47.2023064,68.2335954 47.5393475,68.2759679 C47.8133331,68.310413 48.0633657,68.1162271 48.0978109,67.8422415 C48.1322561,67.5682558 47.9380702,67.3182232 47.6640845,67.283778 C47.3388707,67.2428925 47.0148288,67.196253 46.6920679,67.1438974 C46.4194884,67.0996818 46.1626752,67.2848074 46.1184597,67.5573869 C46.0742441,67.8299664 46.2593697,68.0867796 46.5319492,68.1309952 Z M49.4232726,68.449744 C49.7613234,68.4697119 50.1002615,68.4837452 50.4399834,68.4918158 C50.7160479,68.4983742 50.945159,68.2798963 50.9517173,68.0038318 C50.9582757,67.7277673 50.7397978,67.4986563 50.4637333,67.4920979 C50.1357589,67.4843063 49.8085609,67.4707591 49.4822374,67.451484 C49.2065755,67.4352013 48.9699076,67.6454697 48.9536249,67.9211316 C48.9373422,68.1967935 49.1476106,68.4334614 49.4232726,68.449744 Z" id="椭圆形备份" fill="#D1D1D1" fill-rule="nonzero"></path>
            <path d="M11.7724797,51.2918393 L90.4902238,51.2918393 C90.1860617,58.8868465 89.9463706,64.5762293 89.7711506,68.3599877 L76.3986607,70.3599877 L26.0526827,70.3599877 L12.25625,68.3599877 L11.7724797,51.2918393 Z" id="矩形" fill="#5E5E5E" opacity="0.237141927"></path>
            <polygon id="矩形" fill="#D4D4D4" points="11.5941087 49.2918393 90.650124 49.2918393 89.7711506 68.2726722 86.0439107 68.3599877 12.25625 68.3599877"></polygon>
            <path d="M70.958099,57.5706581 C70.9172227,57.4443103 70.8085278,57.3518638 70.6770724,57.3328222 L68.6889215,56.9835062 L67.799834,55.1941744 C67.7417756,55.0752564 67.6205193,55 67.4876833,55 C67.3548234,55 67.2340459,55.0752485 67.1745909,55.1941744 L66.2859583,56.9835062 L64.2982783,57.3448968 C64.1668149,57.3639463 64.0576652,57.4563849 64.0172437,57.5827327 C63.9759046,57.7086177 64.0102767,57.8475109 64.1055085,57.9399494 L65.5436648,59.26894 L65.1678694,61.2004052 C65.1455717,61.3309348 65.1985226,61.4642656 65.3067626,61.5413735 C65.4100547,61.6446656 65.623103,61.5952501 65.6737236,61.5687787 L67.4876833,60.6824764 L69.2900234,61.5687787 C69.3406439,61.5952501 69.5408835,61.6574744 69.6569764,61.5413735 C69.7642907,61.4642656 69.819093,61.3309428 69.7963405,61.2004052 L69.4321567,59.26894 L70.8707759,57.927404 C70.9655448,57.8354363 70.9994461,57.6965431 70.958099,57.5706581 Z" id="路径" fill="#B5B5B5" fill-rule="nonzero"></path>
            <path d="M40.958099,57.5706581 C40.9172227,57.4443103 40.8085278,57.3518638 40.6770724,57.3328222 L38.6889215,56.9835062 L37.799834,55.1941744 C37.7417756,55.0752564 37.6205193,55 37.4876833,55 C37.3548234,55 37.2340459,55.0752485 37.1745909,55.1941744 L36.2859583,56.9835062 L34.2982783,57.3448968 C34.1668149,57.3639463 34.0576652,57.4563849 34.0172437,57.5827327 C33.9759046,57.7086177 34.0102767,57.8475109 34.1055085,57.9399494 L35.5436648,59.26894 L35.1678694,61.2004052 C35.1455717,61.3309348 35.1985226,61.4642656 35.3067626,61.5413735 C35.4100547,61.6446656 35.623103,61.5952501 35.6737236,61.5687787 L37.4876833,60.6824764 L39.2900234,61.5687787 C39.3406439,61.5952501 39.5408835,61.6574744 39.6569764,61.5413735 C39.7642907,61.4642656 39.819093,61.3309428 39.7963405,61.2004052 L39.4321567,59.26894 L40.8707759,57.927404 C40.9655448,57.8354363 40.9994461,57.6965431 40.958099,57.5706581 Z" id="路径" fill="#B5B5B5" fill-rule="nonzero"></path>
            <path d="M62.948,24.946 C62.9026664,25.2633349 62.7213349,25.5353322 62.404,25.762 C62.0866651,25.9886678 61.5086709,26.102 60.67,26.102 L59.174,26.102 C58.6299973,26.102 58.0916693,26.0963334 57.559,26.085 C57.0263307,26.0736666 56.5220024,26.068 56.046,26.068 L54.89,26.068 C54.6633322,26.068 54.3970015,26.0793332 54.091,26.102 C53.7849985,26.1246668 53.4790015,26.1586664 53.173,26.204 C52.8669985,26.2493336 52.5723348,26.2946664 52.289,26.34 C52.0056652,26.3853336 51.762001,26.4419997 51.558,26.51 C51.2633319,26.6233339 50.9913346,26.6403337 50.742,26.561 C50.4926654,26.4816663 50.2943341,26.3513342 50.147,26.17 C49.9996659,25.9886658 49.9203334,25.7733346 49.909,25.524 C49.8976666,25.2746654 49.993999,25.0253346 50.198,24.776 C50.2660003,24.6853329 50.401999,24.5720007 50.606,24.436 C50.810001,24.2999993 51.042332,24.1696673 51.303,24.045 C51.563668,23.9203327 51.8073322,23.8183337 52.034,23.739 C52.2606678,23.6596663 52.4306661,23.6313332 52.544,23.654 C52.6573339,23.6766668 52.8839983,23.7276663 53.224,23.807 C53.5640017,23.8863337 53.835999,23.9146668 54.04,23.892 C54.2213342,23.8693332 54.5556642,23.858 55.043,23.858 C55.5303358,23.858 56.1253298,23.8693332 56.828,23.892 C57.5306702,23.9146668 58.318329,23.9486664 59.191,23.994 C60.063671,24.0393336 60.9759952,24.0959997 61.928,24.164 C62.3586688,24.2093336 62.6476659,24.2829995 62.795,24.385 C62.9423341,24.4870005 62.9933336,24.6739986 62.948,24.946 Z M47.07,24.062 C46.8886658,24.5833359 46.4976697,25.1103307 45.897,25.643 C45.2963303,26.1756693 44.6446702,26.6629978 43.942,27.105 C43.2393298,27.5470022 42.5650032,27.9039986 41.919,28.176 C41.2729968,28.4480014 40.8140014,28.5613336 40.542,28.516 C40.0206641,28.4479997 39.6126681,28.2553349 39.318,27.938 C39.0233319,27.6206651 38.7853342,27.1673363 38.604,26.578 C38.5133329,26.3513322 38.5019997,26.1870005 38.57,26.085 C38.6380003,25.9829995 38.8306651,25.8980003 39.148,25.83 C39.4653349,25.7619997 39.827998,25.6600007 40.236,25.524 C40.644002,25.3879993 41.1256639,25.218001 41.681,25.014 C42.2363361,24.809999 42.8936629,24.5493349 43.653,24.232 C44.4123371,23.9146651 45.3019949,23.5293356 46.322,23.076 C46.6393349,22.9399993 46.8773325,22.9569992 47.036,23.127 C47.1946675,23.2970008 47.2060007,23.6086644 47.07,24.062 Z M47.342,28.856 C47.2286661,29.0373342 47.1266671,29.1959993 47.036,29.332 C46.9453329,29.4680007 46.8490005,29.6039993 46.747,29.74 C46.6449995,29.8760007 46.5203341,30.0346658 46.373,30.216 C46.2256659,30.3973342 46.0386678,30.6239986 45.812,30.896 C45.6533325,31.0773342 45.5286671,31.2359993 45.438,31.372 C45.3473329,31.5080007 45.2906668,31.7006654 45.268,31.95 C45.2453332,32.4033356 45.2283334,32.9359969 45.217,33.548 C45.2056666,34.1600031 45.2,34.7833302 45.2,35.418 C45.2,36.0526698 45.2056666,36.6816635 45.217,37.305 C45.2283334,37.9283365 45.234,38.4893308 45.234,38.988 C45.234,39.7813373 45.2283334,40.4046644 45.217,40.858 C45.2056666,41.3113356 45.1490005,41.6626654 45.047,41.912 C44.9449995,42.1613346 44.7750012,42.3426661 44.537,42.456 C44.2989988,42.5693339 43.9533356,42.6713329 43.5,42.762 C42.8426634,42.8980007 42.4006678,42.7166692 42.174,42.218 C41.9473322,41.7193308 41.8793329,40.8240065 41.97,39.532 C42.0380003,38.5119949 42.0889998,37.6110039 42.123,36.829 C42.1570002,36.0469961 42.174,35.293337 42.174,34.568 C42.174,34.3186654 42.1343337,34.1770002 42.055,34.143 C41.9756663,34.1089998 41.8453342,34.1486661 41.664,34.262 C41.0746637,34.5793349 40.5136693,34.8343324 39.981,35.027 C39.4483307,35.2196676 38.9893353,35.3273332 38.604,35.35 C38.3319986,35.35 38.0373349,35.2820007 37.72,35.146 C37.4026651,35.0099993 37.1023347,34.8286678 36.819,34.602 C36.5356653,34.3753322 36.2863344,34.1260014 36.071,33.854 C35.8556656,33.5819986 35.7026671,33.3213346 35.612,33.072 C35.5439997,32.8906658 35.5326664,32.7660003 35.578,32.698 C35.6233336,32.6299997 35.7593322,32.5733336 35.986,32.528 C36.5526695,32.4373329 37.2949954,32.2220017 38.213,31.882 C39.1310046,31.5419983 40.0886617,31.1340024 41.086,30.658 C42.0833383,30.1819976 43.0409954,29.6776693 43.959,29.145 C44.8770046,28.6123307 45.6079973,28.1080024 46.152,27.632 C46.4240014,27.4053322 46.6733322,27.2806668 46.9,27.258 C47.1266678,27.2353332 47.3023327,27.2919993 47.427,27.428 C47.5516673,27.5640007 47.614,27.762332 47.614,28.023 C47.614,28.283668 47.5233342,28.5613319 47.342,28.856 Z M67.98,29.672 C67.4133305,30.6466715 66.7616704,31.2926651 66.025,31.61 C65.2883297,31.9273349 64.5233373,31.9726678 63.73,31.746 C63.2539976,31.6099993 62.7496693,31.4910005 62.217,31.389 C61.6843307,31.2869995 61.1800024,31.1906671 60.704,31.1 C60.4319986,31.0773332 60.296,31.1906654 60.296,31.44 C60.296,32.2106705 60.2903334,32.9019969 60.279,33.514 C60.2676666,34.1260031 60.2676666,34.7209971 60.279,35.299 C60.2903334,35.8770029 60.3016666,36.4776636 60.313,37.101 C60.3243334,37.7243364 60.3413332,38.4326627 60.364,39.226 C60.4093336,40.3820058 60.0580037,41.2829968 59.31,41.929 C58.5619963,42.5750032 57.4400075,42.9206664 55.944,42.966 C55.4679976,42.9886668 54.9806692,42.8923344 54.482,42.677 C53.9833308,42.4616656 53.5186688,42.1896683 53.088,41.861 C52.6573312,41.5323317 52.2720017,41.1696686 51.932,40.773 C51.5919983,40.3763314 51.3426675,39.9966685 51.184,39.634 C51.0706661,39.3846654 51.0536663,39.2033339 51.133,39.09 C51.2123337,38.9766661 51.4106651,39.0106658 51.728,39.192 C52.0680017,39.3733342 52.441998,39.5149995 52.85,39.617 C53.258002,39.7190005 53.6603313,39.7869998 54.057,39.821 C54.4536686,39.8550002 54.8106651,39.8436669 55.128,39.787 C55.4453349,39.730333 55.6946658,39.6453339 55.876,39.532 C56.1933349,39.3053322 56.4199993,38.988002 56.556,38.58 C56.6920007,38.171998 56.7826664,37.4920048 56.828,36.54 C56.8733336,35.610662 56.9073332,34.6756714 56.93,33.735 C56.9526668,32.7943286 56.9413336,31.8706712 56.896,30.964 C56.896,30.759999 56.7826678,30.658 56.556,30.658 C55.5133281,30.5899997 54.5500044,30.6239993 53.666,30.76 C52.8726627,30.8733339 52.1530032,30.9923327 51.507,31.117 C50.8609968,31.2416673 50.1866702,31.4399986 49.484,31.712 C49.1439983,31.8480007 48.8380014,31.9046668 48.566,31.882 C48.2939986,31.8593332 48.0786675,31.7800007 47.92,31.644 C47.7613325,31.5079993 47.6706668,31.3323344 47.648,31.117 C47.6253332,30.9016656 47.6933325,30.6693346 47.852,30.42 C48.1240014,29.9439976 48.3733322,29.5643348 48.6,29.281 C48.8266678,28.9976652 49.0306658,28.7880007 49.212,28.652 C49.3933342,28.5159993 49.5689992,28.4366668 49.739,28.414 C49.9090008,28.3913332 50.0846658,28.4139997 50.266,28.482 C50.4020007,28.5273336 50.6399983,28.5669998 50.98,28.601 C51.3200017,28.6350002 51.5466661,28.652 51.66,28.652 L55.145,28.652 C55.9496707,28.652 56.7939956,28.6576666 57.678,28.669 C58.5620044,28.6803334 59.3949961,28.686 60.177,28.686 L63.458,28.686 C64.2060037,28.686 64.942663,28.6973332 65.668,28.72 C66.393337,28.7426668 67.0733302,28.7653332 67.708,28.788 C67.9800014,28.788 68.1443331,28.8503327 68.201,28.975 C68.257667,29.0996673 68.184001,29.3319983 67.98,29.672 Z" id="行" fill="#B9B9B9" fill-rule="nonzero" transform="translate(51.885139, 32.977285) rotate(-1.000000) translate(-51.885139, -32.977285) "></path>
            <g id="形状" fill-rule="nonzero">
                <use fill="black" fill-opacity="1" filter="url(#filter-2)" xlink:href="#path-1"></use>
                <use fill="#FFFFFF" xlink:href="#path-1"></use>
            </g>
        </g>
    </g>
</svg>